<?xml version="1.0" standalone="no"?>
<!DOCTYPE svg PUBLIC "-//W3C//DTD SVG 20010904//EN"
 "http://www.w3.org/TR/2001/REC-SVG-20010904/DTD/svg10.dtd">
<svg version="1.0" xmlns="http://www.w3.org/2000/svg"
 width="1280.000000pt" height="826.000000pt" viewBox="0 0 1280.000000 826.000000"
 preserveAspectRatio="xMidYMid meet">
<metadata>
Created by potrace 1.15, written by Peter Selinger 2001-2017
</metadata>
<g transform="translate(0.000000,826.000000) scale(0.100000,-0.100000)"
fill="#000000" stroke="none">
<path d="M0 4130 l0 -4130 6400 0 6400 0 0 4130 0 4130 -6400 0 -6400 0 0
-4130z m6240 1812 c0 -5 14 -8 32 -7 19 1 38 -5 49 -16 11 -11 21 -14 25 -8 4
7 10 7 18 0 7 -6 15 -8 19 -5 3 3 15 1 26 -5 11 -7 38 -12 58 -13 21 -1 53
-10 72 -20 21 -12 46 -18 67 -15 18 3 36 2 39 -1 3 -4 23 -7 43 -9 71 -3 117
-14 138 -31 41 -34 78 -96 80 -133 2 -43 29 -88 53 -91 9 0 27 -2 41 -3 28 -3
82 -21 121 -41 14 -7 29 -11 33 -7 3 3 6 0 6 -7 0 -11 3 -11 12 -2 15 15 62
16 53 2 -4 -6 -11 -7 -17 -4 -6 4 -8 2 -4 -4 13 -21 45 -9 51 20 4 15 11 31
17 34 17 11 68 13 74 3 8 -14 20 -11 51 15 27 23 84 29 113 11 5 -3 16 -3 23
2 6 4 14 8 17 9 29 5 61 33 70 60 7 19 18 34 25 34 9 0 12 -6 9 -15 -4 -8 -1
-15 4 -15 6 0 16 16 23 35 10 26 20 36 43 42 17 4 35 6 40 5 4 -2 26 -4 48 -6
22 -2 44 -9 48 -17 8 -11 55 -18 147 -21 14 0 20 -5 16 -14 -7 -19 0 -18 44 6
21 11 46 20 56 20 10 0 36 9 57 20 22 11 50 18 62 15 13 -2 50 -7 83 -9 33 -3
61 -10 63 -15 2 -6 9 -8 15 -4 24 14 56 9 62 -12 4 -11 7 -22 7 -25 0 -3 27
-5 61 -6 34 -1 74 -3 90 -6 15 -3 30 -1 33 3 3 5 16 9 29 9 13 0 26 4 30 10 7
11 65 30 115 36 19 3 36 7 38 9 2 2 22 -3 45 -11 29 -10 49 -12 68 -5 15 5 30
7 33 3 17 -16 132 -23 160 -9 12 6 21 5 26 -3 5 -9 9 -9 14 -1 9 14 47 8 79
-13 13 -9 40 -18 58 -19 19 -1 37 -6 40 -11 4 -4 17 -3 29 4 13 7 35 9 54 5
17 -3 67 -10 111 -15 44 -4 87 -11 96 -14 11 -5 18 -1 21 12 4 15 17 21 49 25
24 3 62 9 84 13 22 4 51 7 65 6 112 -4 230 -1 255 6 17 5 35 7 42 5 6 -2 14 1
18 6 8 14 52 14 57 1 2 -5 29 -1 65 10 66 20 102 18 83 -5 -8 -10 -8 -15 0
-20 17 -10 9 -67 -12 -91 -13 -14 -18 -37 -19 -75 0 -30 0 -96 0 -148 0 -52
-3 -99 -6 -105 -4 -6 -8 -60 -10 -121 -1 -60 -5 -128 -8 -150 -3 -22 -7 -92
-9 -155 -2 -79 -8 -127 -19 -153 -30 -70 -39 -150 -22 -200 8 -24 17 -78 20
-118 6 -101 13 -170 20 -196 3 -12 1 -25 -5 -28 -6 -3 -10 -39 -10 -78 1 -104
-7 -181 -25 -267 -14 -64 -14 -89 -4 -165 7 -49 18 -103 26 -118 14 -28 20
-193 8 -205 -3 -3 2 -16 10 -29 10 -15 15 -45 14 -90 -1 -38 -1 -84 -1 -103 0
-19 0 -45 0 -57 0 -12 -11 -34 -24 -48 -32 -35 -30 -56 11 -101 30 -32 35 -45
36 -88 5 -243 4 -246 -32 -246 -11 0 -38 -9 -62 -19 -23 -11 -69 -22 -102 -26
-33 -4 -67 -13 -75 -19 -19 -17 -100 -37 -100 -25 0 10 -29 7 -47 -4 -6 -4
-19 3 -30 17 -19 23 -22 24 -144 19 -229 -7 -578 -2 -596 10 -7 4 -27 6 -45 2
-18 -3 -44 -7 -58 -9 -14 -2 -47 -11 -75 -19 -59 -18 -135 -28 -135 -18 0 14
-79 34 -110 28 -22 -5 -32 -3 -36 8 -6 14 -34 9 -46 -9 -4 -6 -18 -10 -31 -11
-13 0 -30 -5 -38 -12 -8 -6 -41 -13 -74 -16 -33 -3 -85 -8 -115 -12 -30 -4
-77 -6 -105 -5 -27 0 -60 -5 -73 -12 -20 -10 -26 -10 -36 3 -11 16 -57 12 -87
-7 -8 -4 -32 -9 -54 -10 -22 -1 -48 -5 -57 -9 -10 -4 -23 0 -34 12 -18 17 -19
17 -46 -10 l-27 -27 -138 2 c-76 1 -144 -1 -150 -5 -17 -10 -48 -18 -98 -24
-34 -5 -38 -4 -27 10 18 21 -6 28 -72 21 -36 -4 -56 -2 -61 6 -5 8 -12 7 -25
-5 -10 -9 -21 -15 -26 -14 -5 2 -24 -1 -42 -5 -22 -5 -32 -13 -28 -21 3 -8 0
-15 -7 -18 -16 -5 -81 19 -85 32 -2 6 -19 11 -38 11 -20 0 -37 6 -40 14 -3 8
-13 12 -23 9 -11 -3 -30 7 -48 24 -43 40 -75 63 -90 63 -7 0 -13 7 -13 15 0 8
-9 15 -19 15 -11 0 -21 6 -24 13 -3 9 -16 8 -56 -7 -67 -24 -124 -23 -151 2
-25 23 -113 37 -138 23 -16 -10 -16 -10 0 -11 29 0 30 -19 4 -45 -23 -23 -54
-35 -42 -17 2 4 1 14 -4 21 -6 11 -14 11 -40 -3 -31 -15 -35 -15 -67 4 -40 23
-86 26 -105 6 -22 -21 -51 -23 -68 -4 -18 20 -69 29 -108 19 -15 -4 -46 -3
-70 2 -43 9 -102 -5 -102 -24 0 -4 -15 -5 -34 -2 -26 4 -47 -1 -82 -21 -32
-18 -51 -23 -59 -16 -8 6 -15 6 -23 -2 -10 -10 -17 -10 -32 0 -15 9 -26 10
-40 2 -20 -11 -100 7 -100 23 0 4 -11 0 -25 -9 -14 -9 -28 -14 -32 -11 -3 4
-18 0 -32 -8 -30 -15 -133 -14 -154 3 -6 5 -35 12 -63 15 -29 3 -69 15 -90 26
-22 12 -42 17 -48 12 -14 -11 -96 -11 -96 -1 0 5 -9 6 -20 3 -14 -4 -26 1 -35
13 -7 11 -17 19 -22 19 -4 1 -25 9 -46 19 -21 10 -46 20 -55 21 -9 1 -26 5
-37 9 -73 27 -95 31 -155 25 -35 -3 -66 -11 -68 -18 -2 -6 -19 -11 -38 -11
-28 0 -34 4 -35 23 -1 16 -2 18 -6 5 -6 -22 -19 -23 -27 -2 -4 9 -11 12 -18 8
-20 -12 -67 -4 -102 17 -17 10 -38 22 -46 26 -8 4 -24 15 -34 25 -16 15 -67
25 -79 16 -2 -2 -11 3 -20 10 -9 8 -21 11 -27 7 -5 -3 -10 -1 -10 6 0 8 -11 9
-36 4 -24 -4 -34 -3 -29 4 8 15 4 14 -34 -5 -21 -11 -41 -13 -64 -8 -17 4 -42
8 -54 8 -13 1 -28 7 -34 13 -12 12 -27 3 -89 -49 -9 -7 -36 -14 -60 -15 -25
-1 -46 -7 -48 -13 -2 -5 -11 -10 -20 -10 -15 0 -15 -2 -2 -10 12 -8 10 -10
-11 -10 -14 0 -30 5 -37 12 -7 7 -38 13 -70 13 -31 0 -63 5 -71 9 -8 5 -27 9
-42 8 -16 0 -29 4 -29 11 0 8 -3 8 -12 -1 -17 -17 -53 -15 -69 4 -8 10 -22 14
-40 10 -31 -6 -89 11 -89 26 0 5 -9 6 -20 3 -11 -4 -20 -2 -20 4 0 7 -8 7 -26
1 -14 -6 -30 -8 -35 -4 -5 3 -15 2 -21 -3 -17 -10 -18 -10 -82 -12 -45 -1 -56
-4 -61 -21 -7 -22 -36 -22 -72 1 -13 7 -27 9 -39 4 -11 -5 -37 -14 -59 -20
-22 -6 -39 -16 -38 -23 2 -7 -2 -12 -7 -12 -6 0 -10 13 -10 28 0 20 -7 33 -24
42 -20 10 -24 19 -21 43 2 17 9 33 14 37 6 3 13 22 15 41 3 18 6 34 7 34 8 0
4 126 -5 150 -8 18 -10 41 -5 58 4 16 3 52 -3 80 -5 29 -10 67 -11 85 0 17 -6
32 -12 32 -6 0 -11 10 -12 22 -1 12 -16 42 -33 65 -16 24 -30 50 -30 58 0 8
-21 30 -46 50 -26 19 -44 35 -40 35 4 0 -1 12 -12 28 -14 21 -19 43 -18 97 1
39 -2 75 -6 81 -4 5 -1 23 7 38 17 33 20 82 4 91 -5 4 -8 12 -6 18 2 7 0 23
-5 36 -7 19 -4 31 12 52 23 32 26 59 8 77 -9 9 -9 12 1 12 7 0 9 4 6 10 -3 5
2 21 11 35 15 23 15 27 -1 51 -9 14 -18 33 -20 42 -2 9 -6 24 -9 32 -4 9 2 25
13 36 13 14 16 26 10 35 -12 20 -11 67 2 71 6 2 13 19 15 38 10 77 13 88 30
115 17 27 17 27 -7 46 -13 10 -29 19 -35 19 -6 0 -19 9 -29 20 -10 11 -23 20
-29 21 -6 0 -21 13 -34 30 -20 24 -21 30 -9 35 19 7 14 40 -9 65 -13 15 -14
22 -5 33 8 9 8 16 2 20 -7 5 -7 15 -1 31 6 16 6 25 0 25 -6 0 -10 18 -10 40 0
30 4 40 16 40 8 0 13 4 10 9 -6 9 40 33 89 48 26 7 32 16 42 58 6 28 14 72 18
99 5 36 15 57 37 80 17 16 31 40 32 53 0 13 4 23 9 23 4 0 7 7 7 15 0 9 9 15
25 15 14 0 25 5 25 10 0 6 9 10 20 10 37 0 71 23 77 52 3 15 11 28 18 28 7 0
16 6 19 13 3 6 15 26 26 42 11 17 27 45 35 63 9 18 26 37 40 42 13 5 29 19 35
31 9 16 14 18 20 9 4 -7 13 -9 20 -5 10 6 12 2 8 -13 -8 -30 11 -17 23 15 8
21 14 24 37 20 15 -3 42 1 60 9 38 16 59 10 68 -19 6 -19 8 -19 35 14 16 19
29 30 28 24 -3 -23 2 -28 14 -12 10 13 20 14 58 7 43 -8 91 0 124 22 6 4 17 3
25 -3 22 -13 40 -11 40 6 0 9 6 12 15 9 8 -4 26 1 39 10 18 11 26 12 29 3 3
-9 8 -8 22 3 11 9 16 10 11 3 -10 -18 -4 -18 94 -8 73 7 103 11 110 15 3 2 30
4 60 5 30 1 89 5 130 9 108 11 119 10 139 -8 17 -15 31 -16 81 -4 8 1 15 -4
15 -12 1 -21 15 -41 25 -35 4 3 17 -6 27 -19 17 -24 21 -24 68 -14 28 6 61 11
75 13 14 1 27 3 30 4 3 1 39 3 81 4 64 2 82 6 117 30 23 15 54 45 68 67 26 39
27 39 83 36 33 -2 64 2 76 10 16 10 94 13 115 4 15 -6 89 3 115 15 30 13 209
36 229 29 6 -2 27 -5 46 -8 50 -5 90 -16 129 -33 42 -19 277 -29 296 -13 7 6
23 13 34 15 12 2 36 16 52 30 17 14 38 25 46 25 9 0 31 9 50 21 23 14 44 20
66 16 25 -4 95 1 150 12 4 0 7 -3 7 -7z"/>
<path d="M3454 5685 c-17 -13 -17 -14 -2 -15 9 0 20 5 23 11 11 17 0 20 -21 4z"/>
<path d="M3365 5648 l-20 -21 22 12 c23 12 40 31 26 30 -4 0 -17 -10 -28 -21z"/>
</g>
</svg>
