<?xml version="1.0" standalone="no"?>
<!DOCTYPE svg PUBLIC "-//W3C//DTD SVG 20010904//EN"
 "http://www.w3.org/TR/2001/REC-SVG-20010904/DTD/svg10.dtd">
<svg version="1.0" xmlns="http://www.w3.org/2000/svg"
 width="1280.000000pt" height="768.000000pt" viewBox="0 0 1280.000000 768.000000"
 preserveAspectRatio="xMidYMid meet">
<metadata>
Created by potrace 1.15, written by Peter Selinger 2001-2017
</metadata>
<g transform="translate(0.000000,768.000000) scale(0.100000,-0.100000)"
fill="#000000" stroke="none">
<path d="M0 3840 l0 -3840 6400 0 6400 0 0 3840 0 3840 -6400 0 -6400 0 0
-3840z m8790 1551 c0 -15 40 -24 54 -12 14 12 43 4 77 -21 13 -9 24 -8 53 6
23 11 45 14 59 10 20 -6 67 -9 294 -17 62 -2 63 -2 78 -39 8 -21 22 -38 30
-38 8 0 15 -4 15 -10 0 -5 6 -10 14 -10 8 0 16 -10 20 -23 6 -26 54 -49 111
-53 45 -3 78 -8 115 -18 l26 -7 0 -447 c0 -246 2 -748 4 -1115 l4 -668 -29
-15 c-29 -15 -123 -20 -191 -10 -29 4 -61 -2 -155 -25 -21 -5 -55 -28 -81 -54
-41 -40 -51 -45 -82 -41 -29 4 -96 -10 -193 -39 -13 -4 -23 -11 -23 -16 0 -11
-150 -2 -165 11 -10 8 -17 6 -27 -8 -10 -15 -25 -18 -73 -18 -33 1 -65 4 -71
8 -6 4 -21 -2 -32 -12 -26 -24 -70 -42 -83 -34 -5 3 -9 0 -9 -6 0 -6 -5 -8
-12 -4 -7 5 -30 7 -51 5 -21 -1 -43 2 -50 7 -7 5 -31 12 -55 15 -24 3 -51 12
-61 21 -10 9 -27 16 -38 16 -11 0 -27 7 -34 16 -10 12 -24 15 -53 11 -22 -3
-47 -2 -55 3 -9 4 -36 10 -61 13 -90 12 -125 20 -147 35 -13 8 -23 12 -23 8 0
-3 -12 -1 -27 5 -23 9 -127 19 -203 20 -50 1 -230 49 -230 62 0 5 -9 6 -19 2
-11 -3 -22 -1 -25 4 -4 6 -34 13 -67 17 -32 4 -62 10 -65 15 -4 8 -15 6 -51
-8 -31 -11 -67 -10 -107 4 -21 7 -42 10 -47 7 -11 -6 -101 -6 -144 1 -16 2
-65 7 -108 10 -44 3 -88 10 -99 16 -13 7 -23 7 -32 0 -7 -6 -16 -8 -19 -5 -6
7 -79 -9 -130 -28 -15 -6 -56 -10 -90 -10 -58 0 -73 -3 -129 -28 -31 -14 -117
-31 -148 -30 -14 0 -53 0 -87 0 -35 0 -73 4 -86 9 -16 6 -33 4 -57 -8 -22 -10
-46 -14 -65 -11 -16 4 -40 3 -52 -2 -24 -8 -53 -1 -53 12 0 16 -49 17 -64 1
-9 -8 -31 -17 -48 -18 -43 -4 -93 -11 -93 -13 0 -4 -75 -12 -105 -11 -124 3
-162 2 -220 -8 -36 -6 -78 -13 -95 -16 -36 -6 -52 -7 -129 -4 -49 1 -63 -2
-75 -18 -22 -26 -94 -25 -141 4 -31 18 -43 20 -100 13 -45 -6 -67 -5 -72 3 -4
7 -11 1 -17 -16 -9 -22 -16 -26 -45 -25 -19 1 -45 -5 -58 -14 -29 -19 -172
-49 -223 -48 -128 4 -445 4 -500 0 -41 -2 -131 6 -144 14 -16 10 -165 5 -258
-10 -25 -4 -48 -2 -55 4 -7 5 -42 12 -78 15 -36 3 -78 10 -93 16 -38 15 -84
14 -90 -1 -3 -7 -6 55 -6 137 -1 83 -4 206 -6 275 -2 69 -7 402 -10 740 -3
338 -8 629 -10 645 -2 17 -7 167 -11 335 -6 279 -5 306 10 319 13 11 20 11 28
3 15 -15 31 -16 23 -2 -4 7 3 8 20 4 20 -5 31 -1 46 15 17 18 28 21 64 17 24
-3 47 -1 50 4 10 16 65 12 65 -5 0 -8 -6 -15 -14 -15 -9 0 -13 -10 -12 -25 0
-14 3 -25 5 -25 5 0 125 103 133 115 5 6 8 6 8 -1 0 -16 105 -11 125 6 11 9
15 9 15 1 0 -14 51 -11 61 3 13 17 31 -6 25 -30 -6 -24 7 -33 20 -13 3 6 15 9
25 6 11 -3 19 -1 19 5 0 5 8 8 18 6 9 -3 34 4 54 14 44 22 64 23 71 4 9 -22
59 -7 89 27 29 32 34 34 163 41 107 6 169 14 233 31 44 11 52 11 52 -1 0 -15
31 -19 44 -6 14 13 105 8 111 -7 4 -10 9 -11 17 -3 6 6 17 8 24 5 8 -3 14 1
14 8 0 9 3 10 11 2 8 -8 18 -7 37 3 26 13 55 8 32 -6 -7 -4 -9 -13 -6 -19 4
-6 12 -8 18 -5 21 13 117 12 122 -2 3 -8 16 -14 30 -14 13 0 27 -6 29 -12 3
-7 6 -4 6 6 1 16 4 17 13 8 7 -7 20 -12 29 -12 10 0 19 -6 22 -12 5 -16 47 18
47 39 0 18 19 17 26 -2 4 -8 12 -15 20 -15 8 0 14 -7 14 -15 0 -19 16 -19 24
0 3 8 11 12 19 9 8 -3 34 2 58 10 24 8 69 17 99 19 30 3 56 9 58 15 2 7 11 8
28 2 39 -15 114 -23 114 -12 0 6 11 5 28 -3 15 -7 58 -16 97 -19 38 -4 72 -10
75 -14 3 -4 27 -7 53 -6 26 0 50 -3 53 -7 2 -4 17 -5 33 -3 16 3 32 0 36 -6 3
-5 19 -10 36 -10 16 0 29 -5 29 -11 0 -5 4 -8 9 -5 5 3 11 -1 15 -9 6 -17 37
-20 53 -4 10 10 113 22 163 19 14 -1 55 -3 92 -4 38 0 68 -4 68 -8 0 -3 32 -4
70 -2 69 4 130 25 130 44 0 6 9 10 19 10 11 0 27 10 35 21 13 20 23 22 96 20
44 -1 100 -8 124 -15 36 -11 49 -11 77 1 37 15 139 19 279 9 52 -3 122 -8 155
-11 33 -2 61 -9 63 -14 2 -6 8 -9 13 -5 5 3 9 0 9 -5 0 -6 9 -11 19 -11 11 0
23 -5 26 -11 5 -7 13 -5 25 6 20 18 40 13 40 -11 0 -18 5 -18 33 0 22 15 99
38 127 38 35 0 128 -10 136 -14 5 -3 31 -2 57 2 26 4 50 3 53 -2 7 -12 93 -1
110 13 8 6 14 8 14 4 0 -4 6 -3 13 3 17 14 211 37 234 27 10 -5 22 -7 27 -6 4
1 14 -3 22 -10 8 -6 26 -8 46 -3 18 4 74 6 125 6 77 -2 98 2 128 19 21 13 44
19 58 15 12 -3 29 -1 37 4 19 12 90 13 90 1z"/>
<path d="M3150 5211 c0 -6 5 -13 10 -16 6 -3 10 1 10 9 0 9 -4 16 -10 16 -5 0
-10 -4 -10 -9z"/>
</g>
</svg>
