<?xml version="1.0" standalone="no"?>
<!DOCTYPE svg PUBLIC "-//W3C//DTD SVG 20010904//EN"
 "http://www.w3.org/TR/2001/REC-SVG-20010904/DTD/svg10.dtd">
<svg version="1.0" xmlns="http://www.w3.org/2000/svg"
 width="1280.000000pt" height="882.000000pt" viewBox="0 0 1280.000000 882.000000"
 preserveAspectRatio="xMidYMid meet">
<metadata>
Created by potrace 1.15, written by Peter Selinger 2001-2017
</metadata>
<g transform="translate(0.000000,882.000000) scale(0.100000,-0.100000)"
fill="#000000" stroke="none">
<path d="M0 4410 l0 -4410 6400 0 6400 0 0 4410 0 4410 -6400 0 -6400 0 0
-4410z m6700 1737 c14 -4 32 -8 40 -9 8 -2 21 -7 28 -12 7 -4 33 -8 57 -8 29
0 49 -6 60 -18 16 -17 83 -29 187 -32 37 -1 44 -6 106 -76 23 -26 29 -40 25
-65 -6 -47 24 -80 71 -76 20 2 41 -2 48 -9 6 -6 20 -12 29 -12 10 0 20 -4 23
-9 8 -12 56 -11 56 1 0 6 6 5 15 -2 21 -17 52 -3 60 27 6 24 7 25 20 7 13 -18
14 -18 15 -1 0 21 18 23 26 2 4 -8 12 -15 19 -15 17 0 47 35 38 45 -5 4 1 5
12 0 11 -4 37 -9 58 -12 31 -3 43 1 61 19 12 13 25 31 29 40 4 11 12 15 22 12
8 -3 15 -1 15 6 0 6 4 9 10 5 5 -3 7 -12 3 -20 -10 -29 15 -15 27 15 7 16 22
36 35 44 19 13 29 13 68 1 25 -7 48 -11 51 -8 3 4 6 -1 6 -10 0 -12 7 -15 31
-12 17 2 37 9 45 16 12 10 16 8 21 -9 6 -25 8 -26 33 -12 17 9 18 8 13 -7 -7
-17 -5 -17 21 0 31 21 152 57 161 49 3 -3 20 -7 37 -8 18 -2 53 -7 78 -10 25
-4 49 -6 54 -5 5 1 12 -3 16 -10 18 -29 189 -41 219 -16 28 25 112 39 161 28
30 -7 50 -6 63 1 14 7 22 7 27 -3 6 -8 29 -11 72 -10 119 4 150 3 157 -5 3 -5
11 -10 16 -11 6 -1 27 -9 48 -17 20 -9 37 -13 37 -9 0 5 17 13 38 20 20 6 46
15 56 19 14 5 17 4 12 -4 -11 -18 5 -14 19 4 10 15 12 14 11 -7 -1 -19 5 -25
27 -27 17 -2 27 1 27 10 0 8 4 6 11 -4 12 -22 38 -23 45 -4 4 10 15 13 40 9
22 -4 34 -2 34 6 0 6 9 11 21 11 13 0 18 4 13 13 -6 9 -4 9 8 -1 14 -11 22
-11 47 2 28 15 30 15 24 0 -5 -13 -2 -15 15 -10 11 4 23 2 27 -4 4 -6 16 -8
28 -4 12 4 47 6 77 5 30 -1 73 4 95 12 30 11 44 12 58 3 14 -8 21 -8 30 4 7 8
29 16 51 18 36 2 38 1 32 -23 -4 -14 -2 -25 4 -25 15 0 12 -37 -6 -71 -10 -20
-15 -53 -13 -97 2 -76 -20 -409 -28 -432 -3 -8 -6 -64 -7 -125 -2 -79 -7 -122
-20 -153 -15 -33 -17 -55 -11 -100 18 -138 24 -395 12 -487 -4 -33 -14 -102
-23 -153 -8 -51 -11 -98 -8 -104 4 -6 9 -34 11 -62 3 -28 10 -57 16 -64 6 -8
12 -55 14 -106 1 -50 5 -147 8 -216 5 -116 3 -127 -16 -153 -18 -25 -19 -33
-9 -57 7 -16 18 -31 25 -34 15 -6 23 -53 28 -178 4 -87 -3 -111 -29 -101 -8 3
-30 -4 -49 -16 -19 -11 -41 -18 -48 -15 -7 2 -52 -8 -98 -24 -94 -32 -145 -32
-168 1 -12 17 -15 18 -23 3 -10 -18 -43 -22 -53 -6 -4 7 -13 7 -24 0 -12 -6
-22 -5 -29 2 -8 8 -27 8 -69 -1 -39 -7 -70 -8 -93 -1 -30 8 -59 8 -80 0 -6 -3
-11 -2 -46 6 -33 7 -34 7 -132 1 -40 -2 -74 -1 -77 3 -7 11 -88 1 -135 -18 -8
-3 -22 -7 -30 -8 -8 -1 -33 -5 -55 -9 -33 -5 -44 -3 -64 14 -26 23 -81 29 -81
9 -1 -9 -5 -7 -13 3 -11 15 -15 15 -32 3 -10 -8 -28 -14 -39 -14 -12 0 -29 -7
-40 -15 -10 -8 -30 -12 -45 -9 -14 3 -59 -1 -100 -9 -48 -9 -85 -12 -104 -6
-22 6 -37 4 -58 -8 -23 -14 -35 -15 -57 -7 -19 7 -39 6 -67 -2 -22 -6 -64 -9
-94 -7 -38 4 -56 1 -62 -8 -6 -11 -39 -14 -131 -14 -68 0 -130 -5 -138 -10
-29 -18 -88 -22 -119 -6 -9 4 -29 7 -46 7 -16 -1 -32 2 -35 5 -10 14 -58 -3
-63 -23 -4 -12 -10 -17 -17 -13 -7 4 -16 2 -20 -4 -5 -9 -24 -6 -70 13 -35 14
-72 26 -82 26 -10 0 -18 5 -18 11 0 5 -5 7 -10 4 -6 -4 -23 5 -37 19 -14 14
-31 26 -37 26 -6 1 -22 14 -36 30 -28 35 -44 39 -35 10 4 -11 2 -20 -4 -20 -6
0 -11 6 -11 14 0 22 -10 24 -73 16 -47 -7 -71 -5 -120 11 -33 10 -63 16 -66
13 -3 -4 0 -9 7 -11 22 -8 13 -28 -14 -29 -14 -1 -36 -11 -48 -23 -30 -28 -33
-27 -28 9 5 34 -17 43 -25 10 -7 -27 -36 -25 -64 5 -31 32 -84 35 -92 4 -4
-17 -10 -19 -29 -14 -13 4 -25 10 -28 14 -12 15 -47 28 -65 24 -11 -2 -36 -3
-55 -2 -70 2 -94 -1 -99 -10 -9 -14 -59 -22 -66 -10 -4 5 -25 -2 -49 -15 -40
-22 -96 -29 -112 -14 -3 4 -15 3 -26 -3 -10 -5 -23 -7 -29 -3 -23 14 -134 12
-151 -3 -13 -12 -23 -12 -60 -2 -23 7 -47 16 -53 19 -5 4 -25 6 -42 5 -18 -2
-33 1 -33 5 0 4 -9 6 -19 3 -12 -3 -23 2 -30 15 -8 15 -24 20 -74 24 -35 3
-72 10 -83 16 -95 53 -190 71 -380 72 -89 0 -129 4 -152 16 -18 8 -32 20 -32
25 0 5 -10 14 -22 19 -13 6 -30 14 -38 19 -51 30 -132 44 -218 38 -59 -4 -92
-3 -99 4 -8 8 -22 3 -50 -20 -61 -49 -231 -77 -294 -48 -19 9 -55 19 -81 23
-26 3 -53 13 -59 21 -8 8 -22 12 -38 8 -14 -3 -31 -2 -37 3 -15 10 -31 83 -39
177 -3 44 -15 145 -25 225 -10 80 -26 208 -35 285 -9 77 -20 169 -25 205 -5
36 -21 153 -35 260 -15 107 -37 275 -51 373 -13 98 -24 208 -24 245 0 37 -7
98 -15 135 -21 98 -47 364 -49 492 -1 91 2 110 14 111 8 0 23 -6 32 -14 14
-12 20 -12 39 2 16 10 27 12 40 5 11 -6 20 -6 24 1 3 6 17 7 30 4 16 -4 37 1
58 13 21 13 39 17 52 12 36 -14 65 -10 66 9 1 15 2 15 6 -1 4 -15 12 -18 39
-15 18 2 35 0 37 -5 2 -6 13 -4 27 3 13 7 42 14 64 16 23 2 57 6 76 8 19 3 71
8 115 10 44 3 91 8 105 11 14 3 63 7 110 10 47 2 103 6 126 10 29 4 45 1 53
-9 8 -10 24 -12 51 -9 26 4 40 2 40 -6 0 -6 -5 -11 -12 -11 -21 0 17 -31 40
-33 12 0 24 -7 26 -14 6 -13 73 -7 94 10 8 6 12 6 12 -2 0 -8 7 -7 25 1 18 8
28 8 38 0 29 -24 143 25 199 85 19 21 40 39 47 41 40 8 162 14 178 7 25 -11
64 -12 69 -3 3 5 9 6 14 3 4 -3 28 3 52 13 23 11 49 17 56 15 7 -3 20 -2 30 2
28 12 93 5 187 -21 11 -3 30 -7 41 -9 12 -2 30 -7 40 -13 11 -6 64 -9 119 -8
91 2 104 5 145 31 25 16 47 28 50 28 3 -1 23 9 45 21 35 18 56 21 145 20 58
-1 116 -4 130 -7z"/>
</g>
</svg>
