<?xml version="1.0" standalone="no"?>
<!DOCTYPE svg PUBLIC "-//W3C//DTD SVG 20010904//EN"
 "http://www.w3.org/TR/2001/REC-SVG-20010904/DTD/svg10.dtd">
<svg version="1.0" xmlns="http://www.w3.org/2000/svg"
 width="1280.000000pt" height="591.000000pt" viewBox="0 0 1280.000000 591.000000"
 preserveAspectRatio="xMidYMid meet">
<metadata>
Created by potrace 1.15, written by Peter Selinger 2001-2017
</metadata>
<g transform="translate(0.000000,591.000000) scale(0.100000,-0.100000)"
fill="#000000" stroke="none">
<path d="M0 2955 l0 -2955 6400 0 6400 0 0 2955 0 2955 -6400 0 -6400 0 0
-2955z m8545 877 c39 -11 104 -23 145 -27 41 -4 95 -12 120 -17 25 -6 65 -13
90 -14 25 -2 74 -7 110 -13 35 -5 68 -7 73 -4 16 10 156 16 344 15 158 0 196
-3 215 -16 12 -9 32 -16 45 -16 12 0 25 -5 28 -10 4 -6 12 -10 18 -9 7 1 24
-3 38 -8 14 -6 34 -12 45 -14 24 -3 93 10 117 23 10 5 46 9 80 9 37 0 64 5 69
12 5 9 43 11 131 9 92 -2 132 1 159 12 19 9 38 12 42 9 9 -10 71 -5 194 13 96
15 117 16 135 4 12 -7 54 -14 99 -15 58 -1 82 -6 96 -18 17 -16 35 -17 153
-12 74 3 150 6 169 6 19 0 59 4 89 9 58 11 101 5 101 -14 0 -8 65 -12 227 -14
146 -2 232 -7 240 -14 10 -8 18 -6 33 7 20 18 79 28 175 27 71 -1 148 -30 166
-64 7 -13 20 -29 31 -36 10 -7 18 -24 18 -38 0 -14 7 -39 16 -55 14 -28 14
-32 0 -48 -9 -10 -16 -22 -16 -27 0 -5 -13 -25 -28 -44 -49 -61 -65 -129 -57
-249 6 -82 11 -107 26 -122 23 -23 25 -62 4 -79 -19 -16 -19 -41 2 -101 10
-26 15 -51 11 -54 -3 -4 -21 -6 -39 -5 -207 4 -285 4 -289 -2 -3 -4 -25 -1
-48 8 -27 9 -80 14 -145 14 -56 0 -115 2 -130 5 -65 13 -193 22 -203 14 -6 -5
-83 -9 -171 -8 -104 0 -169 -4 -186 -12 -22 -10 -43 -7 -129 14 -57 14 -148
29 -203 32 -55 3 -122 8 -148 12 -40 5 -52 2 -70 -15 -12 -11 -56 -31 -97 -45
-80 -27 -163 -38 -435 -62 -93 -8 -201 -18 -240 -21 -38 -3 -82 -12 -96 -20
-17 -9 -62 -13 -124 -13 -74 0 -101 -4 -114 -15 -14 -13 -28 -14 -77 -6 -32 5
-160 9 -284 8 -194 -2 -232 1 -279 16 -37 13 -70 17 -106 13 -35 -3 -82 1
-137 14 -94 22 -143 28 -273 34 -49 3 -102 9 -117 14 -16 6 -132 8 -272 5
-165 -3 -253 -1 -273 7 -15 6 -86 13 -157 15 -102 3 -136 0 -165 -13 -44 -19
-143 -19 -391 -1 -190 14 -189 14 -620 9 -162 -2 -311 0 -330 3 -19 4 -126 0
-236 -8 l-201 -15 -154 40 c-84 21 -172 39 -194 39 -22 0 -74 10 -115 21 -77
21 -180 39 -191 33 -11 -6 -129 -16 -214 -19 -44 -1 -96 -4 -115 -7 -19 -3
-41 -1 -47 5 -9 6 -17 6 -25 0 -7 -6 -32 -13 -54 -17 -23 -3 -54 -13 -70 -21
-16 -8 -39 -15 -51 -15 -12 0 -46 -9 -75 -21 -68 -27 -203 -59 -248 -59 -20 0
-41 -5 -46 -10 -6 -6 -24 -11 -40 -11 -69 -3 -314 21 -364 35 -30 9 -65 16
-77 16 -12 0 -38 11 -58 24 -19 13 -56 27 -83 30 -26 4 -65 10 -87 13 -22 4
-146 7 -276 7 -182 1 -240 -2 -252 -12 -9 -8 -21 -11 -27 -7 -6 4 -16 3 -23
-3 -15 -11 -56 -9 -82 5 -19 11 -20 22 -19 384 0 276 4 374 12 377 7 2 12 23
12 47 0 40 2 43 32 49 69 14 139 22 143 16 2 -3 26 -5 54 -4 34 1 52 -3 55
-12 6 -15 36 -20 36 -6 0 9 156 9 165 0 3 -3 -10 -9 -30 -12 -19 -4 -35 -11
-35 -16 0 -14 9 -13 80 10 34 11 73 20 86 20 12 0 26 4 29 10 3 5 32 7 68 4
34 -3 85 -6 114 -8 28 -1 55 -5 59 -9 4 -4 2 -7 -5 -7 -7 0 -10 -4 -6 -10 4
-6 15 -5 30 2 19 8 28 8 40 -2 8 -7 18 -10 21 -7 3 3 17 2 31 -4 17 -6 32 -5
51 5 15 7 52 14 83 14 31 1 75 5 97 10 28 7 58 6 94 -2 32 -7 107 -11 188 -9
74 2 148 3 164 3 16 0 39 6 52 14 13 10 24 11 26 5 4 -12 21 -13 128 -5 126
10 250 28 250 38 0 16 390 -15 560 -46 41 -8 86 -13 100 -13 14 0 68 -5 120
-12 90 -12 109 -18 252 -86 30 -14 48 -16 105 -9 37 5 79 8 93 7 13 -1 55 9
92 22 67 24 69 24 113 7 25 -10 43 -20 40 -23 -3 -3 3 -13 13 -23 17 -15 22
-15 55 -1 43 18 61 19 52 4 -5 -7 14 -9 62 -5 77 5 103 10 186 37 32 10 64 16
72 13 7 -3 38 6 67 21 72 37 241 65 277 46 16 -9 34 -7 83 8 173 55 319 79
621 101 65 5 151 14 190 20 104 15 135 16 417 15 228 -1 263 -4 325 -23z"/>
</g>
</svg>
