<?xml version="1.0" standalone="no"?>
<!DOCTYPE svg PUBLIC "-//W3C//DTD SVG 20010904//EN"
 "http://www.w3.org/TR/2001/REC-SVG-20010904/DTD/svg10.dtd">
<svg version="1.0" xmlns="http://www.w3.org/2000/svg"
 width="1280.000000pt" height="1163.000000pt" viewBox="0 0 1280.000000 1163.000000"
 preserveAspectRatio="xMidYMid meet">
<metadata>
Created by potrace 1.15, written by Peter Selinger 2001-2017
</metadata>
<g transform="translate(0.000000,1163.000000) scale(0.100000,-0.100000)"
fill="#000000" stroke="none">
<path d="M0 5815 l0 -5815 6400 0 6400 0 0 5815 0 5815 -6400 0 -6400 0 0
-5815z m5589 2379 c17 -9 37 -14 44 -11 7 3 37 1 67 -4 30 -5 98 -14 150 -19
79 -8 201 -35 445 -100 50 -13 196 -61 260 -85 33 -12 76 -26 95 -30 19 -4 40
-11 46 -16 6 -5 37 -15 70 -24 32 -8 90 -26 128 -40 38 -14 79 -25 90 -25 12
0 26 -4 31 -9 6 -5 35 -16 65 -26 30 -9 102 -39 160 -67 58 -28 121 -57 140
-66 44 -19 202 -54 257 -57 23 -1 50 -8 59 -16 9 -7 22 -14 28 -14 6 -1 20 -5
31 -9 56 -22 75 -27 116 -32 94 -12 127 -22 172 -52 20 -13 37 -31 37 -38 0
-7 6 -17 13 -21 9 -5 18 -44 25 -98 11 -87 15 -149 27 -395 4 -63 8 -124 11
-135 2 -11 6 -69 9 -130 3 -60 7 -130 9 -155 14 -179 29 -349 37 -430 11 -106
14 -130 31 -312 11 -121 12 -127 30 -117 27 15 31 7 13 -27 -16 -31 -19 -57
-8 -67 3 -4 8 -22 9 -39 2 -18 5 -51 7 -73 2 -22 14 -73 26 -113 11 -40 23
-87 25 -105 3 -19 25 -75 50 -127 25 -51 46 -103 46 -116 0 -12 4 -25 9 -28 8
-5 25 -64 22 -78 0 -5 4 -8 10 -8 8 0 9 -15 4 -47 -4 -27 -6 -88 -6 -137 1
-72 5 -93 21 -113 21 -27 26 -53 10 -53 -5 0 -8 -13 -7 -30 1 -16 5 -30 8 -30
4 0 5 -26 3 -59 -3 -44 -1 -61 11 -71 21 -17 19 -57 -2 -64 -10 -4 -31 -25
-47 -47 -22 -32 -27 -48 -23 -75 5 -28 1 -37 -19 -53 -22 -17 -23 -22 -12 -40
29 -47 -32 -63 -272 -76 -69 -4 -136 -8 -150 -9 -14 -2 -72 -6 -130 -10 -58
-4 -181 -13 -275 -21 -93 -7 -217 -16 -275 -20 -58 -3 -123 -8 -145 -10 -38
-5 -434 -38 -595 -50 -76 -6 -243 -22 -520 -50 -225 -23 -256 -22 -285 5 -13
12 -28 19 -34 16 -6 -4 -28 -2 -50 4 -30 8 -40 16 -46 37 -3 15 -15 36 -26 48
-11 11 -40 44 -66 72 -25 29 -67 66 -94 83 -26 17 -54 45 -61 61 -8 19 -29 37
-58 51 -25 11 -55 30 -66 40 -12 11 -35 27 -52 36 -28 16 -124 96 -185 154
-16 15 -37 34 -48 41 -10 8 -56 48 -101 89 -83 75 -137 122 -293 253 -46 39
-136 115 -200 170 -65 55 -139 118 -165 140 -27 22 -108 90 -181 150 -72 61
-169 142 -214 180 -45 39 -166 142 -268 229 -103 87 -189 167 -192 177 -3 9
-24 34 -46 54 -38 34 -40 37 -22 50 10 7 21 11 25 9 4 -3 12 4 17 15 7 13 30
23 66 31 56 12 69 22 166 127 23 25 61 53 72 53 4 0 23 11 41 25 18 14 46 25
62 25 31 0 65 19 166 90 34 25 68 46 73 46 6 1 16 2 23 3 6 0 12 7 12 15 0 19
40 103 73 151 50 74 61 90 122 167 33 42 78 103 100 134 22 32 74 101 115 153
41 53 95 125 119 161 25 36 48 67 51 70 4 3 35 43 68 90 203 283 221 304 270
321 26 8 77 31 114 50 38 19 119 60 180 91 165 83 230 157 252 288 6 33 51
140 59 140 2 0 18 -7 36 -16z"/>
</g>
</svg>
